<svg xmlns="http://www.w3.org/2000/svg" viewBox="0 0 100 100">
  <rect width="100" height="100" fill="#f2f3f7"/>
  <polygon points="14,38 50,18 86,38 50,58" fill="#E6C000"/>
  <polygon points="18.0,38.0 26.0,33.5 34.0,38.0 26.0,42.5" fill="#FFD400"/>
  <polygon points="30.0,44.7 38.0,40.2 46.0,44.7 38.0,49.1" fill="#FFD400"/>
  <polygon points="42.0,51.3 50.0,46.9 58.0,51.3 50.0,55.8" fill="#FFD400"/>
  <polygon points="30.0,31.3 38.0,26.9 46.0,31.3 38.0,35.8" fill="#FFD400"/>
  <polygon points="42.0,38.0 50.0,33.5 58.0,38.0 50.0,42.5" fill="#FFD400"/>
  <polygon points="54.0,44.7 62.0,40.2 70.0,44.7 62.0,49.1" fill="#FFD400"/>
  <polygon points="42.0,24.7 50.0,20.2 58.0,24.7 50.0,29.1" fill="#FFD400"/>
  <polygon points="54.0,31.3 62.0,26.9 70.0,31.3 62.0,35.8" fill="#FFD400"/>
  <polygon points="66.0,38.0 74.0,33.5 82.0,38.0 74.0,42.5" fill="#FFD400"/>
  <polygon points="14,38 50,58 50,90 14,70" fill="#189A3C"/>
  <polygon points="16.0,40.9 24.0,45.3 24.0,52.5 16.0,48.0" fill="#1FBF4A"/>
  <polygon points="16.0,51.5 24.0,56.0 24.0,63.1 16.0,58.7" fill="#1FBF4A"/>
  <polygon points="16.0,62.2 24.0,66.7 24.0,73.8 16.0,69.3" fill="#1FBF4A"/>
  <polygon points="28.0,47.5 36.0,52.0 36.0,59.1 28.0,54.7" fill="#1FBF4A"/>
  <polygon points="28.0,58.2 36.0,62.7 36.0,69.8 28.0,65.3" fill="#1FBF4A"/>
  <polygon points="28.0,68.9 36.0,73.3 36.0,80.5 28.0,76.0" fill="#1FBF4A"/>
  <polygon points="40.0,54.2 48.0,58.7 48.0,65.8 40.0,61.3" fill="#1FBF4A"/>
  <polygon points="40.0,64.9 48.0,69.3 48.0,76.5 40.0,72.0" fill="#1FBF4A"/>
  <polygon points="40.0,75.5 48.0,80.0 48.0,87.1 40.0,82.7" fill="#1FBF4A"/>
  <polygon points="50,58 86,38 86,70 50,90" fill="#C42A22"/>
  <polygon points="52.0,58.7 60.0,54.2 60.0,61.3 52.0,65.8" fill="#E8332A"/>
  <polygon points="52.0,69.3 60.0,64.9 60.0,72.0 52.0,76.5" fill="#E8332A"/>
  <polygon points="52.0,80.0 60.0,75.5 60.0,82.7 52.0,87.1" fill="#E8332A"/>
  <polygon points="64.0,52.0 72.0,47.5 72.0,54.7 64.0,59.1" fill="#E8332A"/>
  <polygon points="64.0,62.7 72.0,58.2 72.0,65.3 64.0,69.8" fill="#E8332A"/>
  <polygon points="64.0,73.3 72.0,68.9 72.0,76.0 64.0,80.5" fill="#E8332A"/>
  <polygon points="76.0,45.3 84.0,40.9 84.0,48.0 76.0,52.5" fill="#E8332A"/>
  <polygon points="76.0,56.0 84.0,51.5 84.0,58.7 76.0,63.1" fill="#E8332A"/>
  <polygon points="76.0,66.7 84.0,62.2 84.0,69.3 76.0,73.8" fill="#E8332A"/>
</svg>
